{"title":"All My Sons (1948) DvdRip Eng NKM","uid":6181784,"size":731866906,"categoryP":"video","categoryS":"movies","magnet":"?xt=urn:btih:7c55a113baeadb9edb073ce8577fcde52a8b7230&amp;dn=All+My+Sons+%281948%29+DvdRip+Eng+NKM&amp;tr=udp%3A%2F%2Ftracker.openbittorrent.com%3A80&amp;tr=udp%3A%2F%2Fopen.demonii.com%3A1337&amp;tr=udp%3A%2F%2Ftracker.coppersurfer.tk%3A6969&amp;tr=udp%3A%2F%2Fexodus.desync.com%3A6969","seeders":4,"leechers":0,"uploader":"vikkiy","files":1,"time":1297978735,"description":"Plot Summary:\n\nAll My Sons tells the story of Joe Keller, a successful, middle-aged, self-made man who has done a terrible and tragic thing. He framed his business partner for a crime and engineered his own exoneration. Now, his son is about to marry the partner's daughter, the affair is revisited, and his lie of a life is unraveled.\n\nThe video and audio quality is good, the file plays well.\n\nGeneral\n\nFormat                           : AVI\nFormat/Info                      : Audio Video Interleave\nFile size                        : 698 MiB\nDuration                         : 1h 33mn\nOverall bit rate                 : 1 038 Kbps\n\nVideo\n\nID                               : 0\nFormat                           : MPEG-4 Visual\nFormat profile                   : Advanced Simple@L5\nFormat settings, BVOP            : 1\nFormat settings, QPel            : No\nFormat settings, GMC             : No warppoints\nFormat settings, Matrix          : Default (H.263)\nCodec ID                         : XVID\nCodec ID/Hint                    : XviD\nDuration                         : 1h 33mn\nBit rate                         : 983 Kbps\nWidth                            : 624 pixels\nHeight                           : 464 pixels\nDisplay aspect ratio             : 4:3\nFrame rate                       : 23.976 fps\nColor space                      : YUV\nChroma subsampling               : 4:2:0\nBit depth                        : 8 bits\nScan type                        : Progressive\nCompression mode                 : Lossy\nBits/(Pixel*Frame)               : 0.142\nStream size                      : 661 MiB (95%)\nWriting library                  : XviD 1.2.0SMP (UTC 2006-01-08)\n\nAudio\n\nID                               : 1\nFormat                           : MPEG Audio\nFormat version                   : Version 1\nFormat profile                   : Layer 3\nCodec ID                         : 55\nCodec ID/Hint                    : MP3\nDuration                         : 1h 33mn\nBit rate mode                    : Variable\nBit rate                         : 45.6 Kbps\nNominal bit rate                 : 48.0 Kbps\nChannel(s)                       : 1 channel\nSampling rate                    : 32.0 KHz\nCompression mode                 : Lossy\nStream size                      : 30.6 MiB (4%)\nAlignment                        : Aligned on interleaves\nInterleave, duration             : 36 ms (0.86 video frame)\nInterleave, preload duration     : 569 ms\nWriting library                  : LAME3.97b\nEncoding settings                : -m m -V 4 -q 2 -lowpass 11.3 --abr 48","torrent":{"xt":"urn:btih:7c55a113baeadb9edb073ce8577fcde52a8b7230","amp;dn":"All+My+Sons+%281948%29+DvdRip+Eng+NKM","amp;tr":["udp%3A%2F%2Ftracker.openbittorrent.com%3A80","udp%3A%2F%2Fopen.demonii.com%3A1337","udp%3A%2F%2Ftracker.coppersurfer.tk%3A6969","udp%3A%2F%2Fexodus.desync.com%3A6969"],"infoHash":"7c55a113baeadb9edb073ce8577fcde52a8b7230","infoHashBuffer":{"type":"Buffer","data":[124,85,161,19,186,234,219,158,219,7,60,232,87,127,205,229,42,139,114,48]},"announce":[],"urlList":[]}}